<svg width="69" height="69" viewBox="0 0 69 69" fill="none" xmlns="http://www.w3.org/2000/svg">
<g filter="url(#filter0_d)">
<circle cx="34.25" cy="30.25" r="26.25" fill="#FF7676"/>
</g>
<path fill-rule="evenodd" clip-rule="evenodd" d="M35.5 19.75C35.5 19.3358 35.1642 19 34.75 19H32.75C32.3358 19 32 19.3358 32 19.75V28H23.75C23.3358 28 23 28.3358 23 28.75V30.75C23 31.1642 23.3358 31.5 23.75 31.5H32V40.75C32 41.1642 32.3358 41.5 32.75 41.5H34.75C35.1642 41.5 35.5 41.1642 35.5 40.75V31.5H44.75C45.1642 31.5 45.5 31.1642 45.5 30.75V28.75C45.5 28.3358 45.1642 28 44.75 28H35.5V19.75Z" fill="white"/>
<defs>
<filter id="filter0_d" x="0" y="0" width="68.5" height="68.5" filterUnits="userSpaceOnUse" color-interpolation-filters="sRGB">
<feFlood flood-opacity="0" result="BackgroundImageFix"/>
<feColorMatrix in="SourceAlpha" type="matrix" values="0 0 0 0 0 0 0 0 0 0 0 0 0 0 0 0 0 0 127 0"/>
<feOffset dy="4"/>
<feGaussianBlur stdDeviation="4"/>
<feColorMatrix type="matrix" values="0 0 0 0 1 0 0 0 0 0.462745 0 0 0 0 0.462745 0 0 0 0.3 0"/>
<feBlend mode="normal" in2="BackgroundImageFix" result="effect1_dropShadow"/>
<feBlend mode="normal" in="SourceGraphic" in2="effect1_dropShadow" result="shape"/>
</filter>
</defs>
</svg>
