<svg width="25" height="25" viewBox="0 0 25 25" fill="none" xmlns="http://www.w3.org/2000/svg">
<path d="M6.6938 12.5C6.6938 9.28255 9.31954 6.6938 12.5 6.6938C12.8329 6.6938 13.1287 6.39794 13.1287 6.0651C13.1287 5.73226 12.8329 5.4364 12.5 5.4364C8.61688 5.4364 5.4364 8.61687 5.4364 12.5C5.4364 14.8669 6.61983 17.0488 8.57989 18.3802C8.69084 18.4542 8.80179 18.4911 8.91273 18.4911C9.09764 18.4911 9.31954 18.3802 9.43048 18.2323C9.61539 17.9364 9.54143 17.5666 9.24557 17.3817C7.65534 16.2722 6.6938 14.4601 6.6938 12.5Z" fill="#FF7676"/>
<path d="M16.0503 6.39802C15.7544 6.21311 15.3846 6.32405 15.1997 6.61991C15.0148 6.91577 15.1257 7.28559 15.4216 7.4705C17.1967 8.50601 18.3062 10.4291 18.3062 12.5001C18.3062 14.0533 17.7145 15.5326 16.605 16.6051C16.0873 17.1229 15.4586 17.5667 14.7559 17.8625C14.608 17.9365 14.46 17.9735 14.3121 18.0104C13.8683 18.1584 13.3875 18.2693 12.9438 18.3063C12.7958 18.3063 12.6479 18.3063 12.5 18.3063C12.1671 18.3063 11.8713 18.6022 11.8713 18.935C11.8713 19.2678 12.1671 19.5637 12.5 19.5637C12.6849 19.5637 12.8698 19.5637 13.0547 19.5267C13.6094 19.4897 14.2012 19.3788 14.7189 19.1939C14.9038 19.1199 15.0887 19.0829 15.2367 19.009C16.0873 18.6391 16.8269 18.1584 17.4926 17.4927C18.8239 16.1613 19.5636 14.3862 19.5636 12.5001C19.5636 9.9853 18.2322 7.65541 16.0503 6.39802Z" fill="#FF7676"/>
<path d="M24.3713 11.8713H22.855C22.5592 6.6568 18.3432 2.44083 13.1287 2.14497V0.628698C13.1287 0.295858 12.8328 0 12.5 0C12.1672 0 11.8713 0.295858 11.8713 0.628698V2.14497C6.6568 2.44083 2.44083 6.6568 2.14497 11.8713H0.628698C0.295858 11.8713 0 12.1672 0 12.5C0 12.8328 0.295858 13.1287 0.628698 13.1287H2.14497C2.44083 18.3432 6.6568 22.5592 11.8713 22.855V24.3713C11.8713 24.7041 12.1672 25 12.5 25C12.8328 25 13.1287 24.7041 13.1287 24.3713V22.855C18.3432 22.5592 22.5592 18.3432 22.855 13.1287H24.3713C24.7041 13.1287 25 12.8328 25 12.5C25 12.1672 24.7041 11.8713 24.3713 11.8713ZM13.1287 21.5976V21.3388C13.1287 21.0059 12.8328 20.7101 12.5 20.7101C12.1672 20.7101 11.8713 21.0059 11.8713 21.3388V21.5976C7.35947 21.3018 3.73521 17.6775 3.40237 13.1287H3.66124C3.99408 13.1287 4.28994 12.8328 4.28994 12.5C4.28994 12.1672 3.99408 11.8713 3.66124 11.8713H3.40237C3.73521 7.35947 7.35947 3.73521 11.8713 3.40237V3.66124C11.8713 3.99408 12.1672 4.28994 12.5 4.28994C12.8328 4.28994 13.1287 3.99408 13.1287 3.66124V3.40237C17.6775 3.69822 21.3018 7.32248 21.5976 11.8713H21.3388C21.0059 11.8713 20.7101 12.1672 20.7101 12.5C20.7101 12.8328 21.0059 13.1287 21.3388 13.1287H21.5976C21.3018 17.6775 17.6775 21.3018 13.1287 21.5976Z" fill="#FF7676"/>
<path d="M11.9823 15.6065V16.3461H13.2397V15.6065C14.3861 15.5695 15.2737 14.7559 15.2737 13.7574V13.6834C15.2737 13.2766 15.0518 12.6849 14.0533 12.1671L13.9793 12.1301L13.8684 12.0932L12.1302 11.7603L11.4645 11.6124C11.0577 11.3905 11.0207 11.2426 11.0207 11.2426V11.2056C11.0207 10.8727 11.4275 10.6139 11.9083 10.6139H13.1287C13.6095 10.6139 14.0163 10.9097 14.0163 11.2056H15.2737C15.2737 10.2071 14.3861 9.39345 13.2397 9.35647V8.65381H11.9823V9.35647H11.9083C10.7249 9.35647 9.76334 10.2071 9.76334 11.2056V11.2795C9.76334 11.8713 10.1701 12.389 10.9468 12.7958L11.0207 12.8328L11.9083 13.0177L13.5355 13.3506C13.8684 13.5355 13.9793 13.6834 14.0163 13.7204V13.7943C14.0163 14.1272 13.6095 14.3861 13.1287 14.3861H11.9083C11.4275 14.3861 11.0207 14.0902 11.0207 13.7943H9.76334C9.76334 14.8298 10.7249 15.6435 11.9083 15.6435H11.9823V15.6065Z" fill="#FF7676"/>
</svg>
