<svg width="24" height="24" viewBox="0 0 24 24" fill="none" xmlns="http://www.w3.org/2000/svg">
<path d="M22.5 9.72656L20.5781 9.30469C20.4375 8.85156 20.25 8.39062 20.0156 7.92188L21.0469 6.1875C21.1875 5.96875 21.293 5.73828 21.3633 5.49609C21.4336 5.25391 21.4453 5 21.3984 4.73438C21.3516 4.46875 21.2344 4.24219 21.0469 4.05469L19.9922 3C19.8516 2.85938 19.6836 2.75391 19.4883 2.68359C19.293 2.61328 19.0977 2.58203 18.9023 2.58984C18.707 2.59766 18.5156 2.63281 18.3281 2.69531C18.1406 2.75781 17.9688 2.83594 17.8125 2.92969L16.125 4.00781L15.9375 3.91406L15.75 3.82031L15.5625 3.73828L15.3633 3.65625L15.1641 3.57422L14.9648 3.50391L14.7656 3.44531L14.3438 1.47656C14.2656 1.10156 14.0781 0.761719 13.7812 0.457031C13.4844 0.152344 13.1406 0 12.75 0H11.25C10.8594 0 10.5352 0.148438 10.2773 0.445312C10.0195 0.742188 9.84375 1.09375 9.75 1.5L9.25781 3.42188C9.00781 3.5 8.76172 3.58984 8.51953 3.69141C8.27734 3.79297 8.03906 3.90625 7.80469 4.03125L6.07031 2.92969C5.86719 2.78906 5.63672 2.69141 5.37891 2.63672C5.12109 2.58203 4.85938 2.58203 4.59375 2.63672C4.32812 2.69141 4.10156 2.8125 3.91406 3L2.83594 4.05469C2.57031 4.39844 2.44922 4.75 2.47266 5.10938C2.49609 5.46875 2.61719 5.82812 2.83594 6.1875L3.9375 8.01562C3.71875 8.46875 3.54688 8.89844 3.42188 9.30469L1.5 9.72656C1.10938 9.80469 0.761719 9.98828 0.457031 10.2773C0.152344 10.5664 0 10.9141 0 11.3203V12.8203C0 13.1953 0.148438 13.5156 0.445312 13.7812C0.742188 14.0469 1.09375 14.2266 1.5 14.3203L3.44531 14.7891C3.57031 15.1797 3.73438 15.5781 3.9375 15.9844L2.83594 17.8125C2.61719 18.1719 2.49609 18.5312 2.47266 18.8906C2.44922 19.25 2.57031 19.6016 2.83594 19.9453L3.91406 21C4.22656 21.2812 4.58594 21.418 4.99219 21.4102C5.39844 21.4023 5.75781 21.2891 6.07031 21.0703L7.80469 19.9688L8.08594 20.1094L8.37891 20.2383L8.68359 20.3555L8.98828 20.4727L9.28125 20.5781L9.75 22.5C9.84375 22.9062 10.0234 23.2578 10.2891 23.5547C10.5547 23.8516 10.875 24 11.25 24H12.75C13.0156 24 13.2656 23.9258 13.5 23.7773C13.7344 23.6289 13.9219 23.4414 14.0625 23.2148C14.2031 22.9883 14.2969 22.75 14.3438 22.5L14.7656 20.5547C15.2344 20.4141 15.6875 20.2266 16.125 19.9922L17.8125 21.0703C18.1406 21.2891 18.5078 21.4023 18.9141 21.4102C19.3203 21.418 19.6797 21.2812 19.9922 21L21.0469 19.9453C21.3125 19.6016 21.4336 19.25 21.4102 18.8906C21.3867 18.5312 21.2656 18.1719 21.0469 17.8125L20.0156 16.0781C20.2344 15.6562 20.4141 15.2266 20.5547 14.7891L22.5 14.3203C22.9062 14.2266 23.2578 14.0469 23.5547 13.7812C23.8516 13.5156 24 13.1953 24 12.8203V11.3203C24 10.7109 23.6797 10.2422 23.0391 9.91406C22.8672 9.82031 22.6875 9.75781 22.5 9.72656ZM22.5 12.7031C22.4844 12.7188 22.4609 12.7344 22.4297 12.75C22.3984 12.7656 22.3594 12.7812 22.3125 12.7969L22.1719 12.8438L19.3828 13.5469L19.125 14.3203C19.0625 14.5078 18.9961 14.6914 18.9258 14.8711C18.8555 15.0508 18.7734 15.2266 18.6797 15.3984L18.3047 16.1484L19.7812 18.5859C19.8594 18.7266 19.9062 18.8516 19.9219 18.9609L18.9375 19.9453C18.875 19.9297 18.8203 19.9102 18.7734 19.8867C18.7266 19.8633 18.6953 19.8438 18.6797 19.8281L16.2188 18.2578L15.4453 18.6562C15.3203 18.7188 15.1953 18.7773 15.0703 18.832L14.6953 18.9961L14.3203 19.125L13.5 19.4062L12.8906 22.1953C12.875 22.2578 12.8516 22.3164 12.8203 22.3711C12.7891 22.4258 12.7578 22.4688 12.7266 22.5H11.3672C11.3047 22.4062 11.2578 22.2969 11.2266 22.1719L10.5234 19.4062L9.72656 19.1484C9.67969 19.1328 9.63672 19.1172 9.59766 19.1016C9.55859 19.0859 9.51562 19.0703 9.46875 19.0547L9.32812 19.0078L9.1875 18.9492L9.04688 18.8906L8.90625 18.832L8.77734 18.7734L8.64844 18.7148L8.50781 18.6328L7.73438 18.2344L5.27344 19.8047C5.16406 19.8828 5.0625 19.9219 4.96875 19.9219L3.98438 18.9609C4 18.8516 4.04688 18.7344 4.125 18.6094L5.64844 16.0547L5.29688 15.3281C5.125 14.9844 4.98438 14.6562 4.875 14.3438L4.61719 13.5469L1.875 12.8438C1.71875 12.8125 1.59375 12.7656 1.5 12.7031V11.3203C1.51562 11.3203 1.53516 11.3125 1.55859 11.2969C1.58203 11.2812 1.61328 11.2617 1.65234 11.2383C1.69141 11.2148 1.72656 11.2031 1.75781 11.2031L4.59375 10.5703L4.85156 9.75C4.94531 9.42188 5.08594 9.0625 5.27344 8.67188L5.64844 7.94531L4.125 5.41406C4.09375 5.35156 4.0625 5.28516 4.03125 5.21484C4 5.14453 3.98438 5.08594 3.98438 5.03906L4.96875 4.05469L5.22656 4.17188L7.73438 5.76562L8.50781 5.36719C8.89844 5.16406 9.30469 4.99219 9.72656 4.85156L10.5234 4.59375L11.2031 1.875C11.2344 1.71875 11.2891 1.59375 11.3672 1.5H12.75L12.7734 1.57031C12.7891 1.58594 12.8008 1.60156 12.8086 1.61719C12.8164 1.63281 12.8242 1.65625 12.832 1.6875C12.8398 1.71875 12.8516 1.74219 12.8672 1.75781L13.4766 4.59375L14.2969 4.875C14.6875 5 15.0703 5.15625 15.4453 5.34375L16.2188 5.74219L18.6328 4.19531C18.7422 4.13281 18.8438 4.10156 18.9375 4.10156L19.9219 5.0625C19.9062 5.09375 19.8906 5.14062 19.875 5.20312C19.8594 5.26562 19.8281 5.32812 19.7812 5.39062L18.3047 7.85156L18.6797 8.60156C18.7891 8.80469 18.8828 9 18.9609 9.1875C19.0391 9.375 19.1016 9.5625 19.1484 9.75L19.4062 10.5703L22.1953 11.2031C22.3672 11.2344 22.4766 11.2891 22.5234 11.3672L22.5 12.7031ZM12.0117 7.5C10.7695 7.5 9.70703 7.9375 8.82422 8.8125C7.94141 9.6875 7.5 10.75 7.5 12C7.5 13.25 7.94141 14.3125 8.82422 15.1875C9.70703 16.0625 10.7656 16.5 12 16.5C12.625 16.5 13.2148 16.3828 13.7695 16.1484C14.3242 15.9141 14.8047 15.5938 15.2109 15.1875C15.6172 14.7812 15.9375 14.3008 16.1719 13.7461C16.4062 13.1914 16.5234 12.6094 16.5234 12C16.5234 10.75 16.082 9.6875 15.1992 8.8125C14.3164 7.9375 13.2539 7.5 12.0117 7.5ZM12 15C11.1719 15 10.4648 14.707 9.87891 14.1211C9.29297 13.5352 9 12.8281 9 12C9 11.1719 9.29297 10.4648 9.87891 9.87891C10.4648 9.29297 11.1719 9 12 9C12.8281 9 13.5352 9.29297 14.1211 9.87891C14.707 10.4648 15 11.1719 15 12C15 12.8281 14.707 13.5352 14.1211 14.1211C13.5352 14.707 12.8281 15 12 15Z" fill="#FF7676"/>
</svg>
