<svg width="24" height="24" viewBox="0 0 24 24" fill="none" xmlns="http://www.w3.org/2000/svg">
<path d="M12 1C9.82441 1 7.69767 1.64514 5.88873 2.85383C4.07979 4.06253 2.66989 5.78049 1.83733 7.79048C1.00477 9.80047 0.786929 12.0122 1.21137 14.146C1.6358 16.2798 2.68345 18.2398 4.22183 19.7782C5.76021 21.3165 7.72022 22.3642 9.85401 22.7886C11.9878 23.2131 14.1995 22.9952 16.2095 22.1627C18.2195 21.3301 19.9375 19.9202 21.1462 18.1113C22.3549 16.3023 23 14.1756 23 12C23 9.08262 21.8411 6.28472 19.7782 4.22183C17.7153 2.15893 14.9174 1 12 1Z" stroke="#FF7676" stroke-width="1.5" stroke-miterlimit="10"/>
<path d="M8.5 8.64299C8.5 8.64299 8.5525 7.54924 9.72313 6.60736C10.4175 6.04799 11.25 5.88611 12 5.87486C12.6831 5.86611 13.2931 5.97924 13.6581 6.15299C14.2831 6.45049 15.5 7.17674 15.5 8.72111C15.5 10.3461 14.4375 11.0842 13.2269 11.8961C12.0162 12.708 11.6875 13.5892 11.6875 14.4999" stroke="#FF7676" stroke-width="1.5" stroke-miterlimit="10" stroke-linecap="round"/>
<path d="M11.625 19C12.3153 19 12.875 18.4404 12.875 17.75C12.875 17.0596 12.3153 16.5 11.625 16.5C10.9346 16.5 10.375 17.0596 10.375 17.75C10.375 18.4404 10.9346 19 11.625 19Z" fill="#FF7676"/>
</svg>
