<svg width="20" height="25" viewBox="0 0 20 25" fill="none" xmlns="http://www.w3.org/2000/svg">
<path d="M15.0893 8.57143V9.19643H15.7143H17.1429C18.3736 9.19643 19.375 10.1968 19.375 11.4286V21.4286C19.375 22.6603 18.3736 23.6607 17.1429 23.6607H2.85714C1.6264 23.6607 0.625 22.6603 0.625 21.4286V11.4286C0.625 10.1968 1.6264 9.19643 2.85714 9.19643H4.28571H4.91071V8.57143V5.71429C4.91071 2.90936 7.19385 0.625 10 0.625C12.8061 0.625 15.0893 2.90936 15.0893 5.71429V8.57143ZM12.8571 10.625H13.4821V10V5.71429C13.4821 3.79176 11.9207 2.23214 10 2.23214C8.07931 2.23214 6.51786 3.79176 6.51786 5.71429V10V10.625H7.14286H12.8571ZM8.24486 20.3251C8.71035 20.7906 9.3417 21.0521 10 21.0521C10.6583 21.0521 11.2896 20.7906 11.7551 20.3251C12.2206 19.8597 12.4821 19.2283 12.4821 18.57C12.4821 17.9117 12.2206 17.2804 11.7551 16.8149C11.2896 16.3494 10.6583 16.0879 10 16.0879C9.34169 16.0879 8.71035 16.3494 8.24486 16.8149C7.77937 17.2804 7.51786 17.9117 7.51786 18.57C7.51786 19.2283 7.77937 19.8597 8.24486 20.3251Z" stroke="#FF7676" stroke-width="1.25"/>
</svg>
