<svg width="24" height="24" viewBox="0 0 24 24" fill="none" xmlns="http://www.w3.org/2000/svg">
<path d="M11.9666 0C18.585 0 24 5.34819 24 11.9666C24 18.585 18.585 24 11.9666 24C5.34819 24 0 18.585 0 11.9666C0 5.34819 5.34819 0 11.9666 0ZM11.9666 1.33705C6.08357 1.33705 1.33705 6.08357 1.33705 11.9666C1.33705 17.8496 6.08357 22.663 11.9666 22.663C17.8496 22.663 22.663 17.8496 22.663 11.9666C22.663 6.08357 17.8496 1.33705 11.9666 1.33705Z" fill="#FF7676"/>
<path d="M11.2981 6.35103C11.2981 5.48195 12.6351 5.48195 12.6351 6.35103V11.9666C12.6351 12.1672 12.5683 12.3677 12.4346 12.4346L9.62676 15.3092C9.02509 15.9109 8.08916 14.975 8.69083 14.3733L11.2981 11.6992V6.35103Z" fill="#FF7676"/>
<path d="M7.82173 4.94705C7.08635 5.34816 6.41783 4.21167 7.15321 3.74371C8.62396 2.94148 10.2953 2.47351 11.9666 2.47351C17.2479 2.47351 21.5265 6.75206 21.5265 11.9665C21.5265 17.2479 17.2479 21.5264 11.9666 21.5264C6.75209 21.5264 2.47354 17.2479 2.47354 11.9665C2.47354 10.9638 2.60725 9.96098 2.94151 8.95819C3.20892 8.15596 4.47911 8.55708 4.2117 9.42616C3.94429 10.2284 3.81059 11.0975 3.81059 11.9665C3.81059 16.5125 7.48747 20.1894 11.9666 20.1894C16.5125 20.1894 20.1894 16.5125 20.1894 11.9665C20.1894 7.48744 16.5125 3.81056 11.9666 3.81056C10.5627 3.81056 9.09193 4.21167 7.82173 4.94705ZM5.34819 7.22003C4.81337 7.88855 3.74374 7.15318 4.27856 6.4178C4.47911 6.08354 4.74652 5.74928 5.01393 5.48187C5.6156 4.81334 6.61839 5.74928 6.01672 6.4178C5.74931 6.61836 5.54875 6.88577 5.34819 7.22003Z" fill="#FF7676"/>
</svg>
