<svg width="23" height="22" viewBox="0 0 23 22" fill="none" xmlns="http://www.w3.org/2000/svg">
<path d="M19.9376 0.821175V2.88944H5.95023L19.6817 0.632694L19.6924 0.630939L19.703 0.628814C19.7315 0.623118 19.7609 0.62381 19.789 0.630836C19.8172 0.637863 19.8434 0.651049 19.8659 0.669447L20.2621 0.186096L19.8659 0.669451C19.8883 0.687843 19.9064 0.710989 19.9188 0.737217C19.9312 0.763456 19.9376 0.792115 19.9376 0.821126V0.821175Z" stroke="#FF7676" stroke-width="1.25"/>
<path d="M0.829875 5.37122H22.1789C22.2309 5.37122 22.2808 5.39188 22.3176 5.42866C22.3544 5.46543 22.375 5.51532 22.375 5.56733V20.3474C22.375 20.3994 22.3544 20.4493 22.3176 20.4861C22.2808 20.5229 22.2309 20.5435 22.1789 20.5435H0.829875C0.777861 20.5435 0.727979 20.5229 0.691201 20.4861C0.65442 20.4493 0.633759 20.3994 0.633759 20.3474V5.56733C0.633759 5.51532 0.654421 5.46544 0.6912 5.42866C0.727979 5.39188 0.777862 5.37122 0.829875 5.37122ZM16.0183 14.8425C16.3911 15.0916 16.8295 15.2246 17.2779 15.2246C17.8792 15.2246 18.4559 14.9857 18.881 14.5606C19.3062 14.1354 19.5451 13.5587 19.5451 12.9574C19.5451 12.509 19.4121 12.0706 19.163 11.6978C18.9139 11.3249 18.5598 11.0343 18.1455 10.8627C17.7312 10.6911 17.2754 10.6462 16.8356 10.7337C16.3958 10.8212 15.9918 11.0371 15.6747 11.3542C15.3576 11.6713 15.1417 12.0753 15.0542 12.5151C14.9667 12.9549 15.0116 13.4107 15.1832 13.825C15.3548 14.2393 15.6454 14.5934 16.0183 14.8425Z" stroke="#FF7676" stroke-width="1.25"/>
<path d="M0.625 10.5376V4.13034C0.625 3.90626 0.676745 3.82466 0.695042 3.80203C0.709031 3.78472 0.7495 3.74313 0.888109 3.72141L0.88835 3.72137C1.75936 3.58453 3.12564 3.47684 4.29424 3.40317C4.30822 3.40229 4.32217 3.40141 4.33608 3.40054V3.48884V4.74618V5.37118H4.96108C5.17187 5.37118 5.41828 5.51397 5.66555 5.77715C5.70567 5.81985 5.74308 5.86287 5.77749 5.9048L2.368 9.77194L0.625 10.5376Z" stroke="#FF7676" stroke-width="1.25"/>
</svg>
