<svg width="44" height="56" viewBox="0 0 44 56" fill="none" xmlns="http://www.w3.org/2000/svg">
<g filter="url(#filter0_d)">
<path d="M22 10C22 10 10 22.5589 10 33.0349C10 43.5109 18.3016 46 22 46C25.6984 46 34 43.5109 34 33.0349C34 22.5589 22 10 22 10Z" fill="#8DD5D9"/>
<path d="M13.4536 34.9377C13.145 27.1875 17.929 18.3623 22.0266 12.2732C22.0106 12.2526 22 12.2423 22 12.2423C22 12.2423 11.474 23.2635 11.474 32.4537C11.474 36.3366 12.7778 39.0675 14.5232 40.9292C13.9272 39.1909 13.5441 37.2057 13.4536 34.9377Z" fill="#D0F8F9"/>
</g>
<defs>
<filter id="filter0_d" x="0" y="0" width="44" height="56" filterUnits="userSpaceOnUse" color-interpolation-filters="sRGB">
<feFlood flood-opacity="0" result="BackgroundImageFix"/>
<feColorMatrix in="SourceAlpha" type="matrix" values="0 0 0 0 0 0 0 0 0 0 0 0 0 0 0 0 0 0 127 0"/>
<feOffset/>
<feGaussianBlur stdDeviation="5"/>
<feColorMatrix type="matrix" values="0 0 0 0 0.815686 0 0 0 0 0.937882 0 0 0 0 0.976471 0 0 0 1 0"/>
<feBlend mode="normal" in2="BackgroundImageFix" result="effect1_dropShadow"/>
<feBlend mode="normal" in="SourceGraphic" in2="effect1_dropShadow" result="shape"/>
</filter>
</defs>
</svg>
